<svg width="155" height="19" viewBox="0 0 155 19" fill="none" xmlns="http://www.w3.org/2000/svg">
<path d="M0.015625 16.1719V2.63672C0.015625 1.93359 0.175781 1.40625 0.496094 1.05469C0.816406 0.703125 1.23047 0.527344 1.73828 0.527344C2.26172 0.527344 2.68359 0.703125 3.00391 1.05469C3.33203 1.39844 3.49609 1.92578 3.49609 2.63672V16.1719C3.49609 16.8828 3.33203 17.4141 3.00391 17.7656C2.68359 18.1172 2.26172 18.293 1.73828 18.293C1.23828 18.293 0.824219 18.1172 0.496094 17.7656C0.175781 17.4062 0.015625 16.875 0.015625 16.1719ZM9.4375 7.27734L12.0273 14.543L14.8164 6.96094C15.0352 6.35156 15.25 5.92188 15.4609 5.67188C15.6719 5.41406 15.9922 5.28516 16.4219 5.28516C16.8281 5.28516 17.1719 5.42188 17.4531 5.69531C17.7422 5.96875 17.8867 6.28516 17.8867 6.64453C17.8867 6.78516 17.8594 6.94922 17.8047 7.13672C17.7578 7.32422 17.6992 7.5 17.6289 7.66406C17.5664 7.82812 17.4922 8.01562 17.4062 8.22656L14.3359 15.8438C14.25 16.0625 14.1367 16.3398 13.9961 16.6758C13.8633 17.0117 13.7109 17.3008 13.5391 17.543C13.375 17.7773 13.168 17.9609 12.918 18.0938C12.6758 18.2266 12.3789 18.293 12.0273 18.293C11.5742 18.293 11.2109 18.1914 10.9375 17.9883C10.6719 17.7773 10.4727 17.5508 10.3398 17.3086C10.2148 17.0586 10 16.5703 9.69531 15.8438L6.64844 8.30859C6.57812 8.12109 6.50391 7.93359 6.42578 7.74609C6.35547 7.55859 6.29297 7.36719 6.23828 7.17188C6.19141 6.97656 6.16797 6.80859 6.16797 6.66797C6.16797 6.44922 6.23438 6.23438 6.36719 6.02344C6.5 5.80469 6.68359 5.62891 6.91797 5.49609C7.15234 5.35547 7.40625 5.28516 7.67969 5.28516C8.21094 5.28516 8.57422 5.4375 8.76953 5.74219C8.97266 6.04688 9.19531 6.55859 9.4375 7.27734ZM31.832 11.7891C31.832 12.7422 31.6836 13.6211 31.3867 14.4258C31.0898 15.2305 30.6602 15.9219 30.0977 16.5C29.5352 17.0781 28.8633 17.5234 28.082 17.8359C27.3008 18.1406 26.4219 18.293 25.4453 18.293C24.4766 18.293 23.6055 18.1367 22.832 17.8242C22.0586 17.5117 21.3867 17.0664 20.8164 16.4883C20.2539 15.9023 19.8242 15.2148 19.5273 14.4258C19.2383 13.6289 19.0938 12.75 19.0938 11.7891C19.0938 10.8203 19.2422 9.93359 19.5391 9.12891C19.8359 8.32422 20.2617 7.63672 20.8164 7.06641C21.3711 6.49609 22.043 6.05859 22.832 5.75391C23.6211 5.44141 24.4922 5.28516 25.4453 5.28516C26.4141 5.28516 27.293 5.44141 28.082 5.75391C28.8711 6.06641 29.5469 6.51172 30.1094 7.08984C30.6719 7.66797 31.0977 8.35547 31.3867 9.15234C31.6836 9.94922 31.832 10.8281 31.832 11.7891ZM28.6211 11.7891C28.6211 10.4844 28.332 9.46875 27.7539 8.74219C27.1836 8.01562 26.4141 7.65234 25.4453 7.65234C24.8203 7.65234 24.2695 7.81641 23.793 8.14453C23.3164 8.46484 22.9492 8.94141 22.6914 9.57422C22.4336 10.207 22.3047 10.9453 22.3047 11.7891C22.3047 12.625 22.4297 13.3555 22.6797 13.9805C22.9375 14.6055 23.3008 15.0859 23.7695 15.4219C24.2461 15.75 24.8047 15.9141 25.4453 15.9141C26.4141 15.9141 27.1836 15.5508 27.7539 14.8242C28.332 14.0898 28.6211 13.0781 28.6211 11.7891ZM37.5625 7.10156V16.3477C37.5625 16.9883 37.4102 17.4727 37.1055 17.8008C36.8008 18.1289 36.4141 18.293 35.9453 18.293C35.4766 18.293 35.0938 18.125 34.7969 17.7891C34.5078 17.4531 34.3633 16.9727 34.3633 16.3477V7.19531C34.3633 6.5625 34.5078 6.08594 34.7969 5.76562C35.0938 5.44531 35.4766 5.28516 35.9453 5.28516C36.4141 5.28516 36.8008 5.44531 37.1055 5.76562C37.4102 6.08594 37.5625 6.53125 37.5625 7.10156ZM35.9805 3.79688C35.5352 3.79688 35.1523 3.66016 34.832 3.38672C34.5195 3.11328 34.3633 2.72656 34.3633 2.22656C34.3633 1.77344 34.5234 1.40234 34.8438 1.11328C35.1719 0.816406 35.5508 0.667969 35.9805 0.667969C36.3945 0.667969 36.7617 0.800781 37.082 1.06641C37.4023 1.33203 37.5625 1.71875 37.5625 2.22656C37.5625 2.71875 37.4062 3.10547 37.0938 3.38672C36.7812 3.66016 36.4102 3.79688 35.9805 3.79688ZM44.0547 13.6758V16.3477C44.0547 16.9961 43.9023 17.4844 43.5977 17.8125C43.293 18.1328 42.9062 18.293 42.4375 18.293C41.9766 18.293 41.5977 18.1289 41.3008 17.8008C41.0039 17.4727 40.8555 16.9883 40.8555 16.3477V7.44141C40.8555 6.00391 41.375 5.28516 42.4141 5.28516C42.9453 5.28516 43.3281 5.45312 43.5625 5.78906C43.7969 6.125 43.9258 6.62109 43.9492 7.27734C44.332 6.62109 44.7227 6.125 45.1211 5.78906C45.5273 5.45312 46.0664 5.28516 46.7383 5.28516C47.4102 5.28516 48.0625 5.45312 48.6953 5.78906C49.3281 6.125 49.6445 6.57031 49.6445 7.125C49.6445 7.51562 49.5078 7.83984 49.2344 8.09766C48.9688 8.34766 48.6797 8.47266 48.3672 8.47266C48.25 8.47266 47.9648 8.40234 47.5117 8.26172C47.0664 8.11328 46.6719 8.03906 46.3281 8.03906C45.8594 8.03906 45.4766 8.16406 45.1797 8.41406C44.8828 8.65625 44.6523 9.01953 44.4883 9.50391C44.3242 9.98828 44.2109 10.5664 44.1484 11.2383C44.0859 11.9023 44.0547 12.7148 44.0547 13.6758ZM59.7227 12.5742H53.4648C53.4727 13.3008 53.6172 13.9414 53.8984 14.4961C54.1875 15.0508 54.5664 15.4688 55.0352 15.75C55.5117 16.0312 56.0352 16.1719 56.6055 16.1719C56.9883 16.1719 57.3359 16.1289 57.6484 16.043C57.9688 15.9492 58.2773 15.8086 58.5742 15.6211C58.8711 15.4258 59.1445 15.2188 59.3945 15C59.6445 14.7812 59.9688 14.4844 60.3672 14.1094C60.5312 13.9688 60.7656 13.8984 61.0703 13.8984C61.3984 13.8984 61.6641 13.9883 61.8672 14.168C62.0703 14.3477 62.1719 14.6016 62.1719 14.9297C62.1719 15.2188 62.0586 15.5586 61.832 15.9492C61.6055 16.332 61.2617 16.7031 60.8008 17.0625C60.3477 17.4141 59.7734 17.707 59.0781 17.9414C58.3906 18.1758 57.5977 18.293 56.6992 18.293C54.6445 18.293 53.0469 17.707 51.9062 16.5352C50.7656 15.3633 50.1953 13.7734 50.1953 11.7656C50.1953 10.8203 50.3359 9.94531 50.6172 9.14062C50.8984 8.32812 51.3086 7.63281 51.8477 7.05469C52.3867 6.47656 53.0508 6.03516 53.8398 5.73047C54.6289 5.41797 55.5039 5.26172 56.4648 5.26172C57.7148 5.26172 58.7852 5.52734 59.6758 6.05859C60.5742 6.58203 61.2461 7.26172 61.6914 8.09766C62.1367 8.93359 62.3594 9.78516 62.3594 10.6523C62.3594 11.457 62.1289 11.9805 61.668 12.2227C61.207 12.457 60.5586 12.5742 59.7227 12.5742ZM53.4648 10.7578H59.2656C59.1875 9.66406 58.8906 8.84766 58.375 8.30859C57.8672 7.76172 57.1953 7.48828 56.3594 7.48828C55.5625 7.48828 54.9062 7.76562 54.3906 8.32031C53.8828 8.86719 53.5742 9.67969 53.4648 10.7578Z" fill="#6DBE85"/>
<path d="M75.5547 3.50391H68.6992V7.89844H74.4297C74.9609 7.89844 75.3555 8.01953 75.6133 8.26172C75.8789 8.49609 76.0117 8.8125 76.0117 9.21094C76.0117 9.60938 75.8789 9.92578 75.6133 10.1602C75.3477 10.3945 74.9531 10.5117 74.4297 10.5117H68.6992V16.1719C68.6992 16.8906 68.5352 17.4258 68.207 17.7773C67.8867 18.1211 67.4727 18.293 66.9648 18.293C66.4492 18.293 66.0273 18.1172 65.6992 17.7656C65.3789 17.4141 65.2188 16.8828 65.2188 16.1719V2.95312C65.2188 2.45312 65.293 2.04688 65.4414 1.73438C65.5898 1.41406 65.8203 1.18359 66.1328 1.04297C66.4531 0.894531 66.8594 0.820312 67.3516 0.820312H75.5547C76.1094 0.820312 76.5195 0.945313 76.7852 1.19531C77.0586 1.4375 77.1953 1.75781 77.1953 2.15625C77.1953 2.5625 77.0586 2.89063 76.7852 3.14062C76.5195 3.38281 76.1094 3.50391 75.5547 3.50391ZM82.4453 7.10156V16.3477C82.4453 16.9883 82.293 17.4727 81.9883 17.8008C81.6836 18.1289 81.2969 18.293 80.8281 18.293C80.3594 18.293 79.9766 18.125 79.6797 17.7891C79.3906 17.4531 79.2461 16.9727 79.2461 16.3477V7.19531C79.2461 6.5625 79.3906 6.08594 79.6797 5.76562C79.9766 5.44531 80.3594 5.28516 80.8281 5.28516C81.2969 5.28516 81.6836 5.44531 81.9883 5.76562C82.293 6.08594 82.4453 6.53125 82.4453 7.10156ZM80.8633 3.79688C80.418 3.79688 80.0352 3.66016 79.7148 3.38672C79.4023 3.11328 79.2461 2.72656 79.2461 2.22656C79.2461 1.77344 79.4062 1.40234 79.7266 1.11328C80.0547 0.816406 80.4336 0.667969 80.8633 0.667969C81.2773 0.667969 81.6445 0.800781 81.9648 1.06641C82.2852 1.33203 82.4453 1.71875 82.4453 2.22656C82.4453 2.71875 82.2891 3.10547 81.9766 3.38672C81.6641 3.66016 81.293 3.79688 80.8633 3.79688ZM88.668 7.05469V7.44141C89.2305 6.69922 89.8438 6.15625 90.5078 5.8125C91.1797 5.46094 91.9492 5.28516 92.8164 5.28516C93.6602 5.28516 94.4141 5.46875 95.0781 5.83594C95.7422 6.20312 96.2383 6.72266 96.5664 7.39453C96.7773 7.78516 96.9141 8.20703 96.9766 8.66016C97.0391 9.11328 97.0703 9.69141 97.0703 10.3945V16.3477C97.0703 16.9883 96.9219 17.4727 96.625 17.8008C96.3359 18.1289 95.957 18.293 95.4883 18.293C95.0117 18.293 94.625 18.125 94.3281 17.7891C94.0312 17.4531 93.8828 16.9727 93.8828 16.3477V11.0156C93.8828 9.96094 93.7344 9.15625 93.4375 8.60156C93.1484 8.03906 92.5664 7.75781 91.6914 7.75781C91.1211 7.75781 90.6016 7.92969 90.1328 8.27344C89.6641 8.60938 89.3203 9.07422 89.1016 9.66797C88.9453 10.1445 88.8672 11.0352 88.8672 12.3398V16.3477C88.8672 16.9961 88.7148 17.4844 88.4102 17.8125C88.1133 18.1328 87.7266 18.293 87.25 18.293C86.7891 18.293 86.4102 18.125 86.1133 17.7891C85.8164 17.4531 85.668 16.9727 85.668 16.3477V7.10156C85.668 6.49219 85.8008 6.03906 86.0664 5.74219C86.332 5.4375 86.6953 5.28516 87.1562 5.28516C87.4375 5.28516 87.6914 5.35156 87.918 5.48438C88.1445 5.61719 88.3242 5.81641 88.457 6.08203C88.5977 6.34766 88.668 6.67188 88.668 7.05469ZM108.355 16.4883C107.582 17.0898 106.832 17.543 106.105 17.8477C105.387 18.1445 104.578 18.293 103.68 18.293C102.859 18.293 102.137 18.1328 101.512 17.8125C100.895 17.4844 100.418 17.043 100.082 16.4883C99.7461 15.9336 99.5781 15.332 99.5781 14.6836C99.5781 13.8086 99.8555 13.0625 100.41 12.4453C100.965 11.8281 101.727 11.4141 102.695 11.2031C102.898 11.1562 103.402 11.0508 104.207 10.8867C105.012 10.7227 105.699 10.5742 106.27 10.4414C106.848 10.3008 107.473 10.1328 108.145 9.9375C108.105 9.09375 107.934 8.47656 107.629 8.08594C107.332 7.6875 106.711 7.48828 105.766 7.48828C104.953 7.48828 104.34 7.60156 103.926 7.82812C103.52 8.05469 103.168 8.39453 102.871 8.84766C102.582 9.30078 102.375 9.60156 102.25 9.75C102.133 9.89062 101.875 9.96094 101.477 9.96094C101.117 9.96094 100.805 9.84766 100.539 9.62109C100.281 9.38672 100.152 9.08984 100.152 8.73047C100.152 8.16797 100.352 7.62109 100.75 7.08984C101.148 6.55859 101.77 6.12109 102.613 5.77734C103.457 5.43359 104.508 5.26172 105.766 5.26172C107.172 5.26172 108.277 5.42969 109.082 5.76562C109.887 6.09375 110.453 6.61719 110.781 7.33594C111.117 8.05469 111.285 9.00781 111.285 10.1953C111.285 10.9453 111.281 11.582 111.273 12.1055C111.273 12.6289 111.27 13.2109 111.262 13.8516C111.262 14.4531 111.359 15.082 111.555 15.7383C111.758 16.3867 111.859 16.8047 111.859 16.9922C111.859 17.3203 111.703 17.6211 111.391 17.8945C111.086 18.1602 110.738 18.293 110.348 18.293C110.02 18.293 109.695 18.1406 109.375 17.8359C109.055 17.5234 108.715 17.0742 108.355 16.4883ZM108.145 11.8594C107.676 12.0312 106.992 12.2148 106.094 12.4102C105.203 12.5977 104.586 12.7383 104.242 12.832C103.898 12.918 103.57 13.0938 103.258 13.3594C102.945 13.6172 102.789 13.9805 102.789 14.4492C102.789 14.9336 102.973 15.3477 103.34 15.6914C103.707 16.0273 104.188 16.1953 104.781 16.1953C105.414 16.1953 105.996 16.0586 106.527 15.7852C107.066 15.5039 107.461 15.1445 107.711 14.707C108 14.2227 108.145 13.4258 108.145 12.3164V11.8594ZM117.449 7.05469V7.44141C118.012 6.69922 118.625 6.15625 119.289 5.8125C119.961 5.46094 120.73 5.28516 121.598 5.28516C122.441 5.28516 123.195 5.46875 123.859 5.83594C124.523 6.20312 125.02 6.72266 125.348 7.39453C125.559 7.78516 125.695 8.20703 125.758 8.66016C125.82 9.11328 125.852 9.69141 125.852 10.3945V16.3477C125.852 16.9883 125.703 17.4727 125.406 17.8008C125.117 18.1289 124.738 18.293 124.27 18.293C123.793 18.293 123.406 18.125 123.109 17.7891C122.812 17.4531 122.664 16.9727 122.664 16.3477V11.0156C122.664 9.96094 122.516 9.15625 122.219 8.60156C121.93 8.03906 121.348 7.75781 120.473 7.75781C119.902 7.75781 119.383 7.92969 118.914 8.27344C118.445 8.60938 118.102 9.07422 117.883 9.66797C117.727 10.1445 117.648 11.0352 117.648 12.3398V16.3477C117.648 16.9961 117.496 17.4844 117.191 17.8125C116.895 18.1328 116.508 18.293 116.031 18.293C115.57 18.293 115.191 18.125 114.895 17.7891C114.598 17.4531 114.449 16.9727 114.449 16.3477V7.10156C114.449 6.49219 114.582 6.03906 114.848 5.74219C115.113 5.4375 115.477 5.28516 115.938 5.28516C116.219 5.28516 116.473 5.35156 116.699 5.48438C116.926 5.61719 117.105 5.81641 117.238 6.08203C117.379 6.34766 117.449 6.67188 117.449 7.05469ZM140.523 14.332C140.523 14.7305 140.402 15.1562 140.16 15.6094C139.926 16.0625 139.562 16.4961 139.07 16.9102C138.586 17.3164 137.973 17.6445 137.23 17.8945C136.488 18.1445 135.652 18.2695 134.723 18.2695C132.746 18.2695 131.203 17.6953 130.094 16.5469C128.984 15.3906 128.43 13.8438 128.43 11.9062C128.43 10.5938 128.684 9.43359 129.191 8.42578C129.699 7.41797 130.434 6.64062 131.395 6.09375C132.355 5.53906 133.504 5.26172 134.84 5.26172C135.668 5.26172 136.426 5.38281 137.113 5.625C137.809 5.86719 138.395 6.17969 138.871 6.5625C139.355 6.94531 139.723 7.35547 139.973 7.79297C140.23 8.22266 140.359 8.625 140.359 9C140.359 9.38281 140.215 9.70703 139.926 9.97266C139.645 10.2383 139.301 10.3711 138.895 10.3711C138.629 10.3711 138.406 10.3047 138.227 10.1719C138.055 10.0312 137.859 9.80859 137.641 9.50391C137.25 8.91016 136.84 8.46484 136.41 8.16797C135.988 7.87109 135.449 7.72266 134.793 7.72266C133.848 7.72266 133.086 8.09375 132.508 8.83594C131.93 9.57031 131.641 10.5781 131.641 11.8594C131.641 12.4609 131.715 13.0156 131.863 13.5234C132.012 14.0234 132.227 14.4531 132.508 14.8125C132.789 15.1641 133.129 15.4336 133.527 15.6211C133.926 15.8008 134.363 15.8906 134.84 15.8906C135.48 15.8906 136.027 15.7422 136.48 15.4453C136.941 15.1484 137.348 14.6953 137.699 14.0859C137.895 13.7266 138.105 13.4453 138.332 13.2422C138.559 13.0391 138.836 12.9375 139.164 12.9375C139.555 12.9375 139.879 13.0859 140.137 13.3828C140.395 13.6797 140.523 13.9961 140.523 14.332ZM152.254 12.5742H145.996C146.004 13.3008 146.148 13.9414 146.43 14.4961C146.719 15.0508 147.098 15.4688 147.566 15.75C148.043 16.0312 148.566 16.1719 149.137 16.1719C149.52 16.1719 149.867 16.1289 150.18 16.043C150.5 15.9492 150.809 15.8086 151.105 15.6211C151.402 15.4258 151.676 15.2188 151.926 15C152.176 14.7812 152.5 14.4844 152.898 14.1094C153.062 13.9688 153.297 13.8984 153.602 13.8984C153.93 13.8984 154.195 13.9883 154.398 14.168C154.602 14.3477 154.703 14.6016 154.703 14.9297C154.703 15.2188 154.59 15.5586 154.363 15.9492C154.137 16.332 153.793 16.7031 153.332 17.0625C152.879 17.4141 152.305 17.707 151.609 17.9414C150.922 18.1758 150.129 18.293 149.23 18.293C147.176 18.293 145.578 17.707 144.438 16.5352C143.297 15.3633 142.727 13.7734 142.727 11.7656C142.727 10.8203 142.867 9.94531 143.148 9.14062C143.43 8.32812 143.84 7.63281 144.379 7.05469C144.918 6.47656 145.582 6.03516 146.371 5.73047C147.16 5.41797 148.035 5.26172 148.996 5.26172C150.246 5.26172 151.316 5.52734 152.207 6.05859C153.105 6.58203 153.777 7.26172 154.223 8.09766C154.668 8.93359 154.891 9.78516 154.891 10.6523C154.891 11.457 154.66 11.9805 154.199 12.2227C153.738 12.457 153.09 12.5742 152.254 12.5742ZM145.996 10.7578H151.797C151.719 9.66406 151.422 8.84766 150.906 8.30859C150.398 7.76172 149.727 7.48828 148.891 7.48828C148.094 7.48828 147.438 7.76562 146.922 8.32031C146.414 8.86719 146.105 9.67969 145.996 10.7578Z" fill="white"/>
</svg>
